<?xml version="1.0" encoding="UTF-8"?>
<svg width="600" height="400" viewBox="0 0 600 400" fill="none" xmlns="http://www.w3.org/2000/svg">
    <!-- Background Elements -->
    <defs>
        <linearGradient id="bgGradient" x1="0%" y1="0%" x2="100%" y2="100%">
            <stop offset="0%" style="stop-color:#1E90FF;stop-opacity:0.1"/>
            <stop offset="100%" style="stop-color:#1C2035;stop-opacity:0.1"/>
        </linearGradient>
    </defs>
    
    <!-- Abstract Background Pattern -->
    <path d="M0 0 L600 0 L600 400 L0 400 Z" fill="url(#bgGradient)"/>
    
    <!-- Main Marketing Dashboard -->
    <rect x="100" y="50" width="400" height="250" rx="15" fill="#FFFFFF" filter="drop-shadow(0px 10px 20px rgba(30, 144, 255, 0.2))"/>
    
    <!-- Graph Elements -->
    <path d="M150 200 Q200 100 250 180 T350 150 T450 120" stroke="#1E90FF" stroke-width="3" fill="none"/>
    <circle cx="150" cy="200" r="4" fill="#1E90FF"/>
    <circle cx="250" cy="180" r="4" fill="#1E90FF"/>
    <circle cx="350" cy="150" r="4" fill="#1E90FF"/>
    <circle cx="450" cy="120" r="4" fill="#1E90FF"/>
    
    <!-- Bar Charts -->
    <rect x="150" y="220" width="30" height="60" fill="#1E90FF" opacity="0.8"/>
    <rect x="190" y="200" width="30" height="80" fill="#1E90FF"/>
    <rect x="230" y="180" width="30" height="100" fill="#1E90FF" opacity="0.9"/>
    
    <!-- Social Media Icons -->
    <circle cx="350" cy="220" r="15" fill="#1E90FF"/>
    <circle cx="390" cy="220" r="15" fill="#1C2035"/>
    <circle cx="430" cy="220" r="15" fill="#1E90FF"/>
    
    <!-- Decorative Elements -->
    <circle cx="50" cy="50" r="30" fill="#1E90FF" opacity="0.1"/>
    <circle cx="550" cy="350" r="40" fill="#1C2035" opacity="0.1"/>
    
    <!-- Abstract Lines -->
    <path d="M20 300 L80 320 L140 290" stroke="#1E90FF" stroke-width="2" opacity="0.5"/>
    <path d="M460 80 L520 60 L580 90" stroke="#1C2035" stroke-width="2" opacity="0.5"/>
</svg>
