<?xml version="1.0" encoding="UTF-8"?>
<svg width="600" height="400" viewBox="0 0 600 400" fill="none" xmlns="http://www.w3.org/2000/svg">
    <!-- Background Elements -->
    <defs>
        <linearGradient id="bgGradient" x1="0%" y1="0%" x2="100%" y2="100%">
            <stop offset="0%" style="stop-color:#1E90FF;stop-opacity:0.1"/>
            <stop offset="100%" style="stop-color:#1C2035;stop-opacity:0.1"/>
        </linearGradient>
    </defs>
    
    <!-- Abstract Background -->
    <path d="M0 0 L600 0 L600 400 L0 400 Z" fill="url(#bgGradient)"/>
    
    <!-- Browser Window -->
    <rect x="50" y="50" width="500" height="300" rx="10" fill="#FFFFFF" filter="drop-shadow(0px 10px 20px rgba(30, 144, 255, 0.2))"/>
    
    <!-- Browser Header -->
    <rect x="50" y="50" width="500" height="40" rx="10" fill="#F5F5F5"/>
    <circle cx="80" cy="70" r="6" fill="#FF6B6B"/>
    <circle cx="105" cy="70" r="6" fill="#FFD93D"/>
    <circle cx="130" cy="70" r="6" fill="#6BCB77"/>
    
    <!-- URL Bar -->
    <rect x="160" y="60" width="350" height="20" rx="5" fill="#FFFFFF" stroke="#1E90FF" stroke-width="1"/>
    <circle cx="175" cy="70" r="5" fill="#1E90FF"/>
    
    <!-- Content Area -->
    <!-- Navigation Menu -->
    <rect x="70" y="110" width="120" height="220" rx="5" fill="#F8F9FA"/>
    <rect x="85" y="130" width="90" height="10" rx="2" fill="#1E90FF" opacity="0.7"/>
    <rect x="85" y="160" width="90" height="10" rx="2" fill="#1C2035" opacity="0.5"/>
    <rect x="85" y="190" width="90" height="10" rx="2" fill="#1C2035" opacity="0.5"/>
    
    <!-- Main Content Area -->
    <rect x="210" y="110" width="320" height="220" rx="5" fill="#FFFFFF"/>
    
    <!-- Content Elements -->
    <rect x="230" y="130" width="180" height="20" rx="2" fill="#1E90FF"/>
    <rect x="230" y="160" width="280" height="10" rx="2" fill="#1C2035" opacity="0.1"/>
    <rect x="230" y="180" width="260" height="10" rx="2" fill="#1C2035" opacity="0.1"/>
    
    <!-- Code Section -->
    <rect x="230" y="210" width="280" height="100" rx="5" fill="#F8F9FA"/>
    <path d="M250 230 L270 250 L250 270" stroke="#1E90FF" stroke-width="2" fill="none"/>
    <path d="M290 270 L310 230" stroke="#1E90FF" stroke-width="2" fill="none"/>
    <path d="M330 230 L350 250 L330 270" stroke="#1E90FF" stroke-width="2" fill="none"/>
    
    <!-- Decorative Elements -->
    <circle cx="30" cy="30" r="20" fill="#1E90FF" opacity="0.1"/>
    <circle cx="570" cy="370" r="25" fill="#1C2035" opacity="0.1"/>
</svg>
